<?xml version="1.0" encoding="iso-8859-1"?>
<!-- Generator: Adobe Illustrator 19.0.0, SVG Export Plug-In . SVG Version: 6.00 Build 0)  -->
<svg version="1.1" id="Capa_1" xmlns="http://www.w3.org/2000/svg" xmlns:xlink="http://www.w3.org/1999/xlink" x="0px" y="0px"
	 viewBox="0 0 435.722 435.722" style="enable-background:new 0 0 435.722 435.722;" xml:space="preserve">
<g>
	<g>
		<path style="fill:#00ACEA;" d="M413.257,129.697c15.592,16.187,15.592,41.805,0,57.992L242.939,358.007l0,0L106.58,221.126l0,0
			L276.376,51.33c15.814-16.014,41.615-16.176,57.63-0.362c0.122,0.12,0.242,0.241,0.362,0.362L413.257,129.697z"/>
		<path style="fill:#00EFD1;" d="M242.939,358.007l-39.706,39.706v1.045h-86.727l-64.261-65.306
			c-16.014-15.814-16.176-41.616-0.362-57.629c0.12-0.122,0.241-0.242,0.362-0.362l54.335-54.335l0,0l136.359,136.359V358.007z"/>
	</g>
	<path style="fill:#083863;" d="M435.722,158.432c-0.351-13.491-5.759-26.358-15.151-36.049l-78.89-78.89
		c-20.137-19.851-52.483-19.851-72.62,0L44.931,268.146c-19.761,18.996-20.382,50.416-1.385,70.178
		c0.284,0.295,0.572,0.587,0.863,0.876l48.065,47.02H10.449C4.678,386.219,0,390.898,0,396.668c0,5.771,4.678,10.449,10.449,10.449
		h298.318c5.771,0,10.449-4.678,10.449-10.449c0-5.771-4.678-10.449-10.449-10.449h-81.502l193.306-192.261
		C430.162,184.613,435.617,171.822,435.722,158.432z M121.731,386.219L59.559,324.57c-11.686-11.159-12.113-29.679-0.954-41.365
		c0.31-0.325,0.628-0.643,0.954-0.954l47.02-46.498L228.31,356.44l-30.302,29.78H121.731z M405.42,180.375L242.939,342.856
		L121.208,221.126L283.69,58.644c11.426-11.83,30.278-12.158,42.108-0.732c0.248,0.24,0.493,0.484,0.732,0.732l78.89,78.367
		c5.612,5.775,8.951,13.381,9.404,21.42C414.707,166.7,411.327,174.587,405.42,180.375z"/>
</g>
<g>
</g>
<g>
</g>
<g>
</g>
<g>
</g>
<g>
</g>
<g>
</g>
<g>
</g>
<g>
</g>
<g>
</g>
<g>
</g>
<g>
</g>
<g>
</g>
<g>
</g>
<g>
</g>
<g>
</g>
</svg>
